<svg xmlns="http://www.w3.org/2000/svg" width="102.992" height="27.415" viewBox="0 0 102.992 27.415">
  <g id="Group_200" data-name="Group 200" transform="translate(-86.338 -451.327)">
    <path id="Path_214" data-name="Path 214" d="M98.154,451.366l11.914,26.207h-3.611l-2.929-6.458H92.819l-2.9,6.458H86.338Zm-.01,7.876-4.036,9h8.117Z" fill="#e4e6e3"/>
    <path id="Path_215" data-name="Path 215" d="M107.844,452.377h3.639l7.925,17.873,7.983-17.873h3.669l-11.7,26.048Z" fill="#e4e6e3"/>
    <path id="Path_216" data-name="Path 216" d="M134.152,452.337h3.407v25.236h-3.407Z" fill="#e4e6e3"/>
    <path id="Path_217" data-name="Path 217" d="M152.4,451.366l11.914,26.207H160.7l-2.928-6.458H147.06l-2.9,6.458h-3.585Zm-.01,7.876-4.037,9h8.118Z" fill="#e4e6e3"/>
    <path id="Path_218" data-name="Path 218" d="M167.224,451.327l18.66,19.18v-18.17h3.446v26.4l-18.659-19.1v17.926h-3.447Z" fill="#e4e6e3"/>
  </g>
</svg>
